<svg width="594" height="360" viewBox="0 0 594 360" fill="none" xmlns="http://www.w3.org/2000/svg">
<rect width="594" height="360" fill="black"/>
<rect x="2" y="2" width="14" height="32" fill="white"/>
<rect x="2" y="38" width="50" height="50" fill="white"/>
<rect x="20" y="2" width="14" height="14" fill="white"/>
<rect x="20" y="20" width="32" height="14" fill="white"/>
<rect x="56" y="38" width="32" height="14" fill="white"/>
<rect x="92" y="38" width="32" height="68" fill="white"/>
<rect x="146" y="74" width="14" height="14" fill="white"/>
<rect x="164" y="74" width="32" height="50" fill="white"/>
<rect x="146" y="20" width="50" height="50" fill="white"/>
<rect x="218" y="38" width="32" height="50" fill="white"/>
<rect x="200" y="38" width="14" height="68" fill="white"/>
<rect x="254" y="38" width="14" height="50" fill="white"/>
<rect x="272" y="38" width="32" height="14" fill="white"/>
<rect x="308" y="38" width="14" height="32" fill="white"/>
<rect x="326" y="38" width="32" height="50" fill="white"/>
<rect x="362" y="38" width="50" height="50" fill="white"/>
<rect x="416" y="74" width="68" height="32" fill="white"/>
<rect x="488" y="92" width="14" height="32" fill="white"/>
<rect x="470" y="128" width="32" height="14" fill="white"/>
<rect x="524" y="146" width="68" height="14" fill="white"/>
<rect x="524" y="164" width="14" height="86" fill="white"/>
<rect x="524" y="254" width="14" height="32" fill="white"/>
<rect x="542" y="290" width="14" height="32" fill="white"/>
<rect x="560" y="290" width="32" height="32" fill="white"/>
<rect x="542" y="326" width="14" height="32" fill="white"/>
<rect x="452" y="326" width="68" height="14" fill="white"/>
<rect x="488" y="344" width="32" height="14" fill="white"/>
<rect x="470" y="344" width="14" height="14" fill="white"/>
<rect x="416" y="326" width="32" height="32" fill="white"/>
<rect x="380" y="344" width="32" height="14" fill="white"/>
<rect x="308" y="326" width="68" height="32" fill="white"/>
<rect x="200" y="326" width="32" height="32" fill="white"/>
<rect x="128" y="326" width="68" height="32" fill="white"/>
<rect x="56" y="290" width="68" height="68" fill="white"/>
<rect x="2" y="290" width="14" height="68" fill="white"/>
<rect x="38" y="326" width="14" height="32" fill="white"/>
<rect x="38" y="308" width="14" height="14" fill="white"/>
<rect x="2" y="272" width="68" height="14" fill="white"/>
<rect x="92" y="254" width="32" height="32" fill="white"/>
<rect x="128" y="308" width="68" height="14" fill="white"/>
<rect x="128" y="236" width="14" height="68" fill="white"/>
<rect x="200" y="254" width="32" height="68" fill="white"/>
<rect x="236" y="272" width="14" height="50" fill="white"/>
<rect x="272" y="254" width="68" height="68" fill="white"/>
<rect x="344" y="254" width="32" height="68" fill="white"/>
<rect x="380" y="272" width="14" height="68" fill="white"/>
<rect x="398" y="254" width="50" height="50" fill="white"/>
<rect x="470" y="236" width="14" height="14" fill="white"/>
<rect x="398" y="182" width="32" height="14" fill="white"/>
<rect x="308" y="182" width="68" height="14" fill="white"/>
<rect x="380" y="236" width="86" height="14" fill="white"/>
<rect x="398" y="200" width="86" height="32" fill="white"/>
<rect x="344" y="200" width="32" height="50" fill="white"/>
<rect x="272" y="236" width="68" height="14" fill="white"/>
<rect x="272" y="218" width="32" height="14" fill="white"/>
<rect x="146" y="236" width="86" height="14" fill="white"/>
<rect x="146" y="218" width="32" height="14" fill="white"/>
<rect x="182" y="164" width="68" height="14" fill="white"/>
<rect x="128" y="182" width="32" height="32" fill="white"/>
<rect x="164" y="128" width="14" height="86" fill="white"/>
<rect x="182" y="128" width="32" height="32" fill="white"/>
<rect x="200" y="110" width="32" height="14" fill="white"/>
<rect x="272" y="56" width="32" height="68" fill="white"/>
<rect x="308" y="74" width="14" height="14" fill="white"/>
<rect x="308" y="92" width="68" height="14" fill="white"/>
<rect x="308" y="110" width="14" height="14" fill="white"/>
<rect x="308" y="128" width="32" height="50" fill="white"/>
<rect x="344" y="146" width="86" height="32" fill="white"/>
<rect x="380" y="92" width="32" height="50" fill="white"/>
<rect x="218" y="128" width="86" height="32" fill="white"/>
<rect x="92" y="182" width="32" height="68" fill="white"/>
<rect x="74" y="182" width="14" height="86" fill="white"/>
<rect x="2" y="218" width="14" height="50" fill="white"/>
<rect x="2" y="182" width="68" height="32" fill="white"/>
<rect x="2" y="146" width="32" height="32" fill="white"/>
<rect x="38" y="164" width="122" height="14" fill="white"/>
<rect x="38" y="128" width="68" height="32" fill="white"/>
<rect x="2" y="92" width="86" height="32" fill="white"/>
<rect x="236" y="218" width="32" height="50" fill="white"/>
<rect x="182" y="182" width="50" height="50" fill="white"/>
<rect x="254" y="164" width="50" height="50" fill="white"/>
<rect x="452" y="290" width="86" height="32" fill="white"/>
<rect x="254" y="272" width="14" height="86" fill="white"/>
<rect x="20" y="308" width="14" height="32" fill="white"/>
<rect x="578" y="326" width="14" height="14" fill="white"/>
<rect x="560" y="344" width="32" height="14" fill="white"/>
<rect x="488" y="218" width="32" height="68" fill="white"/>
<rect x="578" y="164" width="14" height="32" fill="white"/>
<rect x="578" y="200" width="14" height="86" fill="white"/>
<rect x="542" y="164" width="32" height="68" fill="white"/>
<rect x="470" y="146" width="50" height="50" fill="white"/>
<rect x="434" y="110" width="32" height="14" fill="white"/>
<rect x="434" y="128" width="32" height="68" fill="white"/>
<rect x="542" y="92" width="14" height="50" fill="white"/>
<rect x="578" y="74" width="14" height="32" fill="white"/>
<rect x="560" y="110" width="32" height="32" fill="white"/>
<rect x="506" y="92" width="32" height="50" fill="white"/>
<rect x="128" y="92" width="32" height="14" fill="white"/>
<rect x="56" y="2" width="68" height="32" fill="white"/>
<rect x="128" y="2" width="14" height="68" fill="white"/>
<rect x="146" y="2" width="32" height="14" fill="white"/>
<rect x="200" y="2" width="50" height="32" fill="white"/>
<rect x="290" y="2" width="50" height="32" fill="white"/>
<rect x="344" y="2" width="68" height="14" fill="white"/>
<rect x="344" y="20" width="14" height="14" fill="white"/>
<rect x="380" y="20" width="32" height="14" fill="white"/>
<rect x="452" y="2" width="14" height="14" fill="white"/>
<rect x="470" y="2" width="14" height="32" fill="white"/>
<rect x="524" y="2" width="68" height="14" fill="white"/>
<rect x="524" y="20" width="68" height="32" fill="white"/>
<rect x="488" y="2" width="32" height="50" fill="white"/>
<rect x="488" y="56" width="50" height="32" fill="white"/>
<rect x="416" y="2" width="32" height="68" fill="white"/>
<rect x="38" y="2" width="14" height="14" fill="#006599"/>
<rect x="254" y="2" width="32" height="32" fill="#006599"/>
<rect x="452" y="38" width="32" height="32" fill="#006599"/>
<rect x="560" y="92" width="14" height="14" fill="#006599"/>
<rect x="326" y="110" width="14" height="14" fill="#006599"/>
<rect x="218" y="92" width="14" height="14" fill="#006599"/>
<rect x="92" y="110" width="14" height="14" fill="#006599"/>
<rect x="128" y="218" width="14" height="14" fill="#006599"/>
<rect x="380" y="182" width="14" height="50" fill="#006599"/>
<rect x="398" y="308" width="50" height="14" fill="#006599"/>
<rect x="542" y="236" width="32" height="50" fill="#006599"/>
<rect x="20" y="290" width="32" height="14" fill="#006599"/>
<rect x="146" y="254" width="50" height="50" fill="#006599"/>
<rect x="2" y="128" width="32" height="14" fill="#006599"/>
<rect x="182" y="2" width="14" height="14" fill="#E31C0C"/>
<rect x="128" y="74" width="14" height="14" fill="#E31C0C"/>
<rect x="20" y="344" width="14" height="14" fill="#E31C0C"/>
<rect x="236" y="326" width="14" height="32" fill="#E31C0C"/>
<rect x="308" y="200" width="32" height="32" fill="#E31C0C"/>
<rect x="380" y="254" width="14" height="14" fill="#E31C0C"/>
<rect x="452" y="344" width="14" height="14" fill="#E31C0C"/>
<rect x="524" y="326" width="14" height="32" fill="#E31C0C"/>
<rect x="488" y="200" width="32" height="14" fill="#E31C0C"/>
<rect x="20" y="218" width="50" height="50" fill="#E31C0C"/>
<rect x="362" y="20" width="14" height="14" fill="#E31C0C"/>
<rect x="452" y="20" width="14" height="14" fill="#E31C0C"/>
<rect x="578" y="56" width="14" height="14" fill="#E31C0C"/>
<rect x="416" y="110" width="14" height="32" fill="#E31C0C"/>
<rect x="236" y="92" width="32" height="32" fill="#E31C0C"/>
<rect x="56" y="56" width="32" height="32" fill="#FFC702"/>
<rect x="110" y="110" width="50" height="50" fill="#FFC702"/>
<rect x="74" y="272" width="14" height="14" fill="#FFC702"/>
<rect x="236" y="182" width="14" height="32" fill="#FFC702"/>
<rect x="470" y="110" width="14" height="14" fill="#FFC702"/>
<rect x="272" y="326" width="32" height="32" fill="#FFC702"/>
<rect x="398" y="326" width="14" height="14" fill="#FFC702"/>
<rect x="560" y="326" width="14" height="14" fill="#FFC702"/>
<rect x="452" y="254" width="32" height="32" fill="#FFC702"/>
<rect x="542" y="56" width="32" height="32" fill="#FFC702"/>
<rect x="344" y="110" width="32" height="32" fill="#FFC702"/>
</svg>
